# xmcd CD database file
#
# Track frame offsets:
#	150
#	17445
#	35859
#	54184
#	81684
#	96605
#	114430
#	149495
#	165112
#	183546
#	206971
#	225238
#	242822
#	257781
#
# Disc length: 3624 seconds
#
# Revision: 0
# Processed by: cddbd v1.5.2PL0 Copyright (c) Steve Scherf et al.
# Submitted via: CDex 1.70beta2
#
DISCID=c20e260e
DTITLE=PHOENIX Project - Scarlet Inferno
DYEAR=2009
DGENRE=東方アレンジ
TTITLE0=ほおずきみたいに紅い魂
TTITLE1=妖魔夜行
TTITLE2=おてんば恋娘
TTITLE3=ヴォヤージュ1969
TTITLE4=上海紅茶館
TTITLE5=千年幻想郷2006
TTITLE6=砕月
TTITLE7=月時計 - ルナ・ダイアル
TTITLE8=亡き王女の為のセプテット
TTITLE9=ラストリモート
TTITLE10=U.N.オーエンは彼女なのか？2004
TTITLE11=永夜抄
TTITLE12=紅楼
TTITLE13=華のさかづき大江山 PSG
EXTD=YEAR: 2009
EXTT0=
EXTT1=
EXTT2=
EXTT3=
EXTT4=
EXTT5=
EXTT6=
EXTT7=
EXTT8=
EXTT9=
EXTT10=
EXTT11=
EXTT12=
EXTT13=
PLAYORDER=
